<?xml version="1.0" encoding="UTF-8"?>
<svg width="20px" height="22px" viewBox="0 0 20 22" version="1.1" xmlns="http://www.w3.org/2000/svg" xmlns:xlink="http://www.w3.org/1999/xlink">
    <!-- Generator: Sketch 46.2 (44496) - http://www.bohemiancoding.com/sketch -->
    <title>€</title>
    <desc>Created with Sketch.</desc>
    <defs></defs>
    <g id="Page-1" stroke="none" stroke-width="1" fill="none" fill-rule="evenodd">
        <g id="2" transform="translate(-1239.000000, -750.000000)" fill="#3C434A">
            <path d="M1254.49849,765.196375 C1253.83384,766.94864 1252.32326,768.096677 1250.32931,768.096677 C1247.97281,768.096677 1246.31118,766.52568 1245.61631,763.836858 L1252.74622,763.836858 L1252.74622,761.812689 L1245.28399,761.812689 C1245.25378,761.450151 1245.25378,761.087613 1245.25378,760.694864 L1245.25378,760 L1252.74622,760 L1252.74622,758.006042 L1245.52568,758.006042 C1246.0997,755.287009 1247.67069,753.776435 1250.17825,753.776435 C1252.29305,753.776435 1253.7432,754.864048 1254.37764,756.52568 L1258.84894,755.256798 C1257.79154,751.963746 1254.70997,750 1250.26888,750 C1244.86103,750 1241.44713,752.990937 1240.54079,758.006042 L1239,758.006042 L1239,760 L1240.32931,760 L1240.32931,760.725076 C1240.32931,761.087613 1240.32931,761.450151 1240.35952,761.812689 L1239,761.812689 L1239,763.836858 L1240.60121,763.836858 C1241.56798,768.791541 1244.86103,771.903323 1250.14804,771.903323 C1254.58912,771.903323 1257.61027,769.909366 1259,766.435045 L1254.49849,765.196375 Z" id="€"></path>
        </g>
    </g>
</svg>