<?xml version="1.0" encoding="UTF-8"?>
<svg width="29px" height="13px" viewBox="0 0 29 13" version="1.1" xmlns="http://www.w3.org/2000/svg" xmlns:xlink="http://www.w3.org/1999/xlink">
    <!-- Generator: Sketch 46.2 (44496) - http://www.bohemiancoding.com/sketch -->
    <title>Page 1</title>
    <desc>Created with Sketch.</desc>
    <defs></defs>
    <g id="Page-1" stroke="none" stroke-width="1" fill="none" fill-rule="evenodd">
        <g id="2" transform="translate(-1289.000000, -703.000000)">
            <g id="Page-1" transform="translate(1290.000000, 704.000000)">
                <path d="M19,6 C19,9.314 16.3135,12 13,12 C9.6865,12 7,9.314 7,6 C7,2.6865 9.6865,0 13,0 C16.3135,0 19,2.6865 19,6" id="Fill-1" fill="#36465D"></path>
                <path d="M9.625,7 C9.28,7 9,6.720625 9,6.375 C9,3.963125 10.9625,2 13.375,2 C13.72,2 14,2.28 14,2.625 C14,2.970625 13.72,3.25 13.375,3.25 C11.651875,3.25 10.25,4.651875 10.25,6.375 C10.25,6.720625 9.97,7 9.625,7" id="Fill-3" fill="#FFFFFF"></path>
                <path d="M0,6 L0.111001877,5.88240015 C7.518688,-1.96080005 19.5923139,-1.96080005 27,5.88240015" id="Stroke-5" stroke="#36465D" stroke-width="2" stroke-linecap="round"></path>
            </g>
        </g>
    </g>
</svg>