<?xml version="1.0" encoding="UTF-8"?>
<svg width="26px" height="19px" viewBox="0 0 26 19" version="1.1" xmlns="http://www.w3.org/2000/svg" xmlns:xlink="http://www.w3.org/1999/xlink">
    <!-- Generator: Sketch 46.2 (44496) - http://www.bohemiancoding.com/sketch -->
    <title>Page 1</title>
    <desc>Created with Sketch.</desc>
    <defs></defs>
    <g id="Page-1" stroke="none" stroke-width="1" fill="none" fill-rule="evenodd">
        <g id="2" transform="translate(-1364.000000, -704.000000)">
            <g id="Page-1" transform="translate(1364.000000, 704.000000)">
                <path d="M24.5578966,19 L1.44210345,19 C0.645517241,19 0,18.3485714 0,17.5446905 L0,1.45530952 C0,0.651428571 0.645517241,0 1.44210345,0 L24.5578966,0 C25.3540345,0 26,0.651428571 26,1.45530952 L26,17.5446905 C26,18.3485714 25.3540345,19 24.5578966,19" id="Fill-1" fill="#3C434A"></path>
                <polygon id="Fill-4" fill="#FFFFFF" points="0 5 26 5 26 3 0 3"></polygon>
                <path d="M21,14 C21,15.6565 19.6565,17 18,17 C16.3435,17 15,15.6565 15,14 C15,12.3435 16.3435,11 18,11 C19.6565,11 21,12.3435 21,14" id="Fill-13" fill="#FFFFFF"></path>
                <path d="M24,14 C24,15.6565 22.6565,17 21,17 C19.3435,17 18,15.6565 18,14 C18,12.3435 19.3435,11 21,11 C22.6565,11 24,12.3435 24,14" id="Fill-14" fill="#49A8D8"></path>
            </g>
        </g>
    </g>
</svg>